<?xml version="1.0" encoding="utf-8"?>
<!-- Generator: Adobe Illustrator 27.5.0, SVG Export Plug-In . SVG Version: 6.00 Build 0)  -->
<svg version="1.1" xmlns="http://www.w3.org/2000/svg" xmlns:xlink="http://www.w3.org/1999/xlink" x="0px" y="0px"
	 viewBox="0 0 500 500" style="enable-background:new 0 0 500 500;" xml:space="preserve">
<g id="Background_Simple">
	<g>
		<path style="fill:#C6FF00;" d="M223.937,465.964c0,0,79.98,12.842,142.739-43.377c62.759-56.219,80.001-147.618,95.922-221.23
			c15.922-73.612-17.92-139.071-80.451-160.055c-62.532-20.984-89.573,32.385-166.699,49.25
			c-77.126,16.865-100.594,9.493-154.801,66.276C6.442,213.612,18.933,321.275,87.615,389.751
			C156.298,458.227,223.937,465.964,223.937,465.964z"/>
		<path style="opacity:0.7;fill:#FFFFFF;" d="M223.937,465.964c0,0,79.98,12.842,142.739-43.377
			c62.759-56.219,80.001-147.618,95.922-221.23c15.922-73.612-17.92-139.071-80.451-160.055
			c-62.532-20.984-89.573,32.385-166.699,49.25c-77.126,16.865-100.594,9.493-154.801,66.276
			C6.442,213.612,18.933,321.275,87.615,389.751C156.298,458.227,223.937,465.964,223.937,465.964z"/>
	</g>
</g>
<g id="Shadow">
	<ellipse style="fill:#263238;" cx="239.5" cy="449" rx="183.5" ry="12"/>
</g>
<g id="Icons">
	<g>
		
			<polyline style="fill:none;stroke:#263238;stroke-linecap:round;stroke-linejoin:round;stroke-miterlimit:10;stroke-dasharray:3;" points="
			144.538,199.664 144.538,93.988 350.893,93.988 350.893,172.531 426.58,172.531 426.58,273.209 		"/>
		<g>
			<polygon style="fill:#FFFFFF;stroke:#263238;stroke-linecap:round;stroke-linejoin:round;stroke-miterlimit:10;" points="
				291.407,112.059 300.267,76.009 273.382,76.009 			"/>
			<polygon style="fill:#C6FF00;stroke:#263238;stroke-linecap:round;stroke-linejoin:round;stroke-miterlimit:10;" points="
				291.407,112.059 293.379,77.376 276.27,77.376 			"/>
			<polygon style="fill:#C6FF00;stroke:#263238;stroke-linecap:round;stroke-linejoin:round;stroke-miterlimit:10;" points="
				291.407,112.059 289.579,74.677 272.47,74.677 			"/>
			<polygon style="fill:#FFFFFF;stroke:#263238;stroke-linecap:round;stroke-linejoin:round;stroke-miterlimit:10;" points="
				259.466,72.954 255.051,67.956 231.832,67.956 242.727,112.059 291.407,112.059 283.689,72.954 			"/>
		</g>
		<g>
			<path style="fill:#FFFFFF;stroke:#263238;stroke-linecap:round;stroke-linejoin:round;stroke-miterlimit:10;" d="
				M379.994,156.759h-58c-2.025,0-3.667-1.642-3.667-3.667v-31.333c0-2.025,1.642-3.667,3.667-3.667h58
				c2.025,0,3.667,1.642,3.667,3.667v31.333C383.661,155.117,382.02,156.759,379.994,156.759z"/>
			
				<rect x="318.328" y="125.425" style="fill:#C6FF00;stroke:#263238;stroke-linecap:round;stroke-linejoin:round;stroke-miterlimit:10;" width="65.333" height="14"/>
			<path style="fill:#FFFFFF;stroke:#263238;stroke-linecap:round;stroke-linejoin:round;stroke-miterlimit:10;" d="M369.87,150.586
				c0-1.509-1.223-2.733-2.733-2.733c-1.509,0-2.732,1.223-2.732,2.733c0,1.509,1.223,2.732,2.732,2.732
				C368.646,153.318,369.87,152.095,369.87,150.586z"/>
			<path style="fill:#FFFFFF;stroke:#263238;stroke-linecap:round;stroke-linejoin:round;stroke-miterlimit:10;" d="M377.46,150.586
				c0-1.509-1.223-2.733-2.733-2.733c-1.509,0-2.733,1.223-2.733,2.733c0,1.509,1.223,2.732,2.733,2.732
				C376.237,153.318,377.46,152.095,377.46,150.586z"/>
		</g>
		<g>
			
				<rect x="103.56" y="120.373" style="fill:#FFFFFF;stroke:#263238;stroke-linecap:round;stroke-linejoin:round;stroke-miterlimit:10;" width="78.166" height="40.725"/>
			
				<rect x="103.56" y="120.373" style="fill:#263238;stroke:#263238;stroke-linecap:round;stroke-linejoin:round;stroke-miterlimit:10;" width="78.166" height="7.215"/>
			
				<rect x="115.325" y="136.255" style="fill:#C6FF00;stroke:#263238;stroke-linecap:round;stroke-linejoin:round;stroke-miterlimit:10;" width="54.637" height="11.681"/>
			<g>
				<path style="fill:#263238;" d="M119.674,140.154h0.938l-0.141,1.6l1.324-1.008l0.475,0.814l-1.506,0.738l1.506,0.779
					l-0.475,0.82l-1.324-1.043l0.141,1.629h-0.938l0.176-1.658l-1.33,1.031l-0.469-0.82l1.465-0.738l-1.5-0.697l0.475-0.815
					l1.354,0.984L119.674,140.154z"/>
				<path style="fill:#263238;" d="M125.299,140.154h0.938l-0.141,1.6l1.324-1.008l0.475,0.814l-1.506,0.738l1.506,0.779
					l-0.475,0.82l-1.324-1.043l0.141,1.629h-0.938l0.176-1.658l-1.33,1.031l-0.469-0.82l1.465-0.738l-1.5-0.697l0.475-0.815
					l1.354,0.984L125.299,140.154z"/>
				<path style="fill:#263238;" d="M130.924,140.154h0.938l-0.141,1.6l1.324-1.008l0.475,0.814l-1.506,0.738l1.506,0.779
					l-0.475,0.82l-1.324-1.043l0.141,1.629h-0.938l0.176-1.658l-1.33,1.031l-0.469-0.82l1.465-0.738l-1.5-0.697l0.475-0.815
					l1.354,0.984L130.924,140.154z"/>
				<path style="fill:#263238;" d="M136.549,140.154h0.938l-0.141,1.6l1.324-1.008l0.475,0.814l-1.506,0.738l1.506,0.779
					l-0.475,0.82l-1.324-1.043l0.141,1.629h-0.938l0.176-1.658l-1.33,1.031l-0.469-0.82l1.465-0.738l-1.5-0.697l0.475-0.815
					l1.354,0.984L136.549,140.154z"/>
				<path style="fill:#263238;" d="M142.174,140.154h0.938l-0.141,1.6l1.324-1.008l0.475,0.814l-1.506,0.738l1.506,0.779
					l-0.475,0.82l-1.324-1.043l0.141,1.629h-0.938l0.176-1.658l-1.33,1.031l-0.469-0.82l1.465-0.738l-1.5-0.697l0.475-0.815
					l1.354,0.984L142.174,140.154z"/>
				<path style="fill:#263238;" d="M147.799,140.154h0.938l-0.141,1.6l1.324-1.008l0.475,0.814l-1.506,0.738l1.506,0.779
					l-0.475,0.82l-1.324-1.043l0.141,1.629h-0.938l0.176-1.658l-1.33,1.031l-0.469-0.82l1.465-0.738l-1.5-0.697l0.475-0.815
					l1.354,0.984L147.799,140.154z"/>
				<path style="fill:#263238;" d="M153.424,140.154h0.938l-0.141,1.6l1.324-1.008l0.475,0.814l-1.506,0.738l1.506,0.779
					l-0.475,0.82l-1.324-1.043l0.141,1.629h-0.938l0.176-1.658l-1.33,1.031l-0.469-0.82l1.465-0.738l-1.5-0.697l0.475-0.815
					l1.354,0.984L153.424,140.154z"/>
				<path style="fill:#263238;" d="M159.049,140.154h0.938l-0.141,1.6l1.324-1.008l0.475,0.814l-1.506,0.738l1.506,0.779
					l-0.475,0.82l-1.324-1.043l0.141,1.629h-0.938l0.176-1.658l-1.33,1.031l-0.469-0.82l1.465-0.738l-1.5-0.697l0.475-0.815
					l1.354,0.984L159.049,140.154z"/>
				<path style="fill:#263238;" d="M164.674,140.154h0.938l-0.141,1.6l1.324-1.008l0.475,0.814l-1.506,0.738l1.506,0.779
					l-0.475,0.82l-1.324-1.043l0.141,1.629h-0.938l0.176-1.658l-1.33,1.031l-0.469-0.82l1.465-0.738l-1.5-0.697l0.475-0.815
					l1.354,0.984L164.674,140.154z"/>
			</g>
		</g>
		<polygon style="fill:#263238;" points="212.064,93.963 194.113,86.108 194.113,101.817 		"/>
		<g>
			
				<circle style="fill:#FFFFFF;stroke:#263238;stroke-linecap:round;stroke-linejoin:round;stroke-miterlimit:10;" cx="426.968" cy="227.951" r="16.054"/>
			
				<ellipse transform="matrix(0.7071 -0.7071 0.7071 0.7071 -36.1292 368.6774)" style="fill:#C6FF00;stroke:#263238;stroke-linecap:round;stroke-linejoin:round;stroke-miterlimit:10;" cx="426.968" cy="227.95" rx="11.926" ry="11.926"/>
			<g>
				<path style="fill:#263238;" d="M422.553,232.275c-0.203-0.15-0.339-0.339-0.406-0.564c-0.068-0.226-0.068-0.442,0-0.649
					c0.068-0.207,0.179-0.393,0.333-0.559c0.154-0.166,0.35-0.26,0.587-0.282c0.237-0.023,0.495,0.034,0.773,0.169
					c0.053,0.023,0.194,0.096,0.423,0.22c0.23,0.124,0.429,0.226,0.598,0.305c0.169,0.079,0.412,0.16,0.728,0.243
					c0.316,0.083,0.644,0.132,0.982,0.147c0.233,0.03,0.486,0.032,0.757,0.006c0.271-0.026,0.523-0.07,0.757-0.13
					c0.233-0.06,0.429-0.171,0.587-0.333c0.158-0.162,0.237-0.367,0.237-0.615c0-0.196-0.117-0.386-0.35-0.57
					c-0.233-0.184-0.565-0.329-0.994-0.435l-1.558-0.418c-0.587-0.166-1.058-0.311-1.411-0.435
					c-0.354-0.124-0.711-0.282-1.073-0.474c-0.361-0.192-0.636-0.403-0.824-0.632c-0.188-0.23-0.341-0.512-0.457-0.847
					c-0.117-0.335-0.175-0.728-0.175-1.18c0-1.099,0.474-1.95,1.423-2.552c0.948-0.602,2.217-0.854,3.805-0.757
					c0.459,0.023,0.894,0.081,1.304,0.175c0.41,0.094,0.725,0.183,0.943,0.265c0.218,0.083,0.497,0.203,0.836,0.361
					c0.263,0.12,0.461,0.294,0.593,0.519c0.132,0.226,0.186,0.446,0.164,0.66c-0.023,0.215-0.092,0.418-0.209,0.61
					c-0.117,0.192-0.293,0.314-0.531,0.367c-0.237,0.053-0.503,0.03-0.796-0.068c-0.73-0.271-1.494-0.452-2.292-0.542
					c-0.271-0.015-0.559-0.017-0.864-0.006c-0.305,0.011-0.581,0.085-0.83,0.22s-0.373,0.316-0.373,0.542
					c0,0.271,0.1,0.482,0.299,0.632c0.199,0.151,0.529,0.279,0.988,0.384l1.547,0.384c0.632,0.166,1.161,0.333,1.586,0.502
					c0.425,0.169,0.811,0.386,1.157,0.649c0.346,0.263,0.606,0.585,0.779,0.965c0.173,0.38,0.263,0.83,0.271,1.349
					c0.015,0.836-0.199,1.547-0.644,2.134c-0.444,0.587-1.043,1.012-1.795,1.276c-0.753,0.264-1.615,0.373-2.586,0.327
					C425.203,233.581,423.773,233.126,422.553,232.275z M426.166,219.573c0-0.256,0.081-0.453,0.243-0.593
					c0.162-0.139,0.341-0.207,0.536-0.203c0.196,0.004,0.375,0.077,0.536,0.22c0.162,0.143,0.243,0.335,0.243,0.576v2.845h-1.558
					V219.573z M426.381,232.986h1.569v2.823c0,0.324-0.132,0.555-0.395,0.694c-0.263,0.139-0.525,0.143-0.785,0.011
					c-0.26-0.132-0.39-0.367-0.39-0.706V232.986z"/>
			</g>
		</g>
		<g>
			
				<circle style="fill:#FFFFFF;stroke:#263238;stroke-linecap:round;stroke-linejoin:round;stroke-miterlimit:10;" cx="426.968" cy="216.06" r="16.054"/>
			
				<circle style="fill:#C6FF00;stroke:#263238;stroke-linecap:round;stroke-linejoin:round;stroke-miterlimit:10;" cx="426.968" cy="216.06" r="11.926"/>
			<g>
				<path style="fill:#263238;" d="M422.553,220.385c-0.203-0.151-0.339-0.339-0.406-0.565c-0.068-0.226-0.068-0.442,0-0.649
					c0.068-0.207,0.179-0.393,0.333-0.559s0.35-0.26,0.587-0.282c0.237-0.023,0.495,0.034,0.773,0.169
					c0.053,0.023,0.194,0.096,0.423,0.22c0.23,0.124,0.429,0.226,0.598,0.305c0.169,0.079,0.412,0.16,0.728,0.243
					c0.316,0.083,0.644,0.132,0.982,0.147c0.233,0.03,0.486,0.032,0.757,0.006c0.271-0.026,0.523-0.07,0.757-0.13
					c0.233-0.06,0.429-0.171,0.587-0.333c0.158-0.162,0.237-0.367,0.237-0.615c0-0.196-0.117-0.386-0.35-0.57
					c-0.233-0.184-0.565-0.329-0.994-0.435l-1.558-0.418c-0.587-0.166-1.058-0.311-1.411-0.435
					c-0.354-0.124-0.711-0.282-1.073-0.474c-0.361-0.192-0.636-0.403-0.824-0.632c-0.188-0.23-0.341-0.512-0.457-0.847
					c-0.117-0.335-0.175-0.728-0.175-1.18c0-1.099,0.474-1.95,1.423-2.552c0.948-0.602,2.217-0.854,3.805-0.757
					c0.459,0.023,0.894,0.081,1.304,0.175c0.41,0.094,0.725,0.182,0.943,0.265c0.218,0.083,0.497,0.203,0.836,0.361
					c0.263,0.12,0.461,0.294,0.593,0.519c0.132,0.226,0.186,0.446,0.164,0.66c-0.023,0.215-0.092,0.418-0.209,0.61
					c-0.117,0.192-0.293,0.314-0.531,0.367c-0.237,0.053-0.503,0.03-0.796-0.068c-0.73-0.271-1.494-0.452-2.292-0.542
					c-0.271-0.015-0.559-0.017-0.864-0.006c-0.305,0.011-0.581,0.085-0.83,0.22c-0.248,0.136-0.373,0.316-0.373,0.542
					c0,0.271,0.1,0.482,0.299,0.632c0.199,0.151,0.529,0.279,0.988,0.384l1.547,0.384c0.632,0.166,1.161,0.333,1.586,0.502
					c0.425,0.169,0.811,0.386,1.157,0.649c0.346,0.264,0.606,0.585,0.779,0.965c0.173,0.38,0.263,0.83,0.271,1.349
					c0.015,0.836-0.199,1.547-0.644,2.134c-0.444,0.587-1.043,1.012-1.795,1.276c-0.753,0.264-1.615,0.373-2.586,0.327
					C425.203,221.691,423.773,221.236,422.553,220.385z M426.166,207.683c0-0.256,0.081-0.454,0.243-0.593
					c0.162-0.139,0.341-0.207,0.536-0.203c0.196,0.004,0.375,0.077,0.536,0.22c0.162,0.143,0.243,0.335,0.243,0.576v2.845h-1.558
					V207.683z M426.381,221.096h1.569v2.823c0,0.324-0.132,0.555-0.395,0.694c-0.263,0.139-0.525,0.143-0.785,0.011
					c-0.26-0.132-0.39-0.367-0.39-0.706V221.096z"/>
			</g>
		</g>
		<g>
			
				<circle style="fill:#FFFFFF;stroke:#263238;stroke-linecap:round;stroke-linejoin:round;stroke-miterlimit:10;" cx="426.968" cy="194.76" r="16.054"/>
			
				<ellipse transform="matrix(0.7071 -0.7071 0.7071 0.7071 -12.66 358.9562)" style="fill:#C6FF00;stroke:#263238;stroke-linecap:round;stroke-linejoin:round;stroke-miterlimit:10;" cx="426.968" cy="194.76" rx="11.926" ry="11.926"/>
			<g>
				<path style="fill:#263238;" d="M422.553,199.085c-0.203-0.151-0.339-0.339-0.406-0.565c-0.068-0.226-0.068-0.442,0-0.649
					c0.068-0.207,0.179-0.393,0.333-0.559s0.35-0.26,0.587-0.282c0.237-0.023,0.495,0.034,0.773,0.169
					c0.053,0.023,0.194,0.096,0.423,0.22c0.23,0.124,0.429,0.226,0.598,0.305c0.169,0.079,0.412,0.16,0.728,0.243
					c0.316,0.083,0.644,0.132,0.982,0.147c0.233,0.03,0.486,0.032,0.757,0.006c0.271-0.026,0.523-0.07,0.757-0.13
					c0.233-0.06,0.429-0.171,0.587-0.333c0.158-0.162,0.237-0.367,0.237-0.615c0-0.196-0.117-0.386-0.35-0.57
					c-0.233-0.184-0.565-0.329-0.994-0.435l-1.558-0.418c-0.587-0.166-1.058-0.311-1.411-0.435
					c-0.354-0.124-0.711-0.282-1.073-0.474c-0.361-0.192-0.636-0.403-0.824-0.632c-0.188-0.23-0.341-0.512-0.457-0.847
					s-0.175-0.728-0.175-1.18c0-1.099,0.474-1.95,1.423-2.552c0.948-0.602,2.217-0.854,3.805-0.757
					c0.459,0.022,0.894,0.081,1.304,0.175c0.41,0.094,0.725,0.182,0.943,0.265c0.218,0.083,0.497,0.203,0.836,0.361
					c0.263,0.121,0.461,0.294,0.593,0.519c0.132,0.226,0.186,0.446,0.164,0.66c-0.023,0.215-0.092,0.418-0.209,0.61
					c-0.117,0.192-0.293,0.314-0.531,0.367c-0.237,0.053-0.503,0.03-0.796-0.068c-0.73-0.271-1.494-0.452-2.292-0.542
					c-0.271-0.015-0.559-0.017-0.864-0.006c-0.305,0.011-0.581,0.085-0.83,0.22c-0.248,0.135-0.373,0.316-0.373,0.542
					c0,0.271,0.1,0.482,0.299,0.632c0.199,0.15,0.529,0.278,0.988,0.384l1.547,0.384c0.632,0.166,1.161,0.333,1.586,0.503
					c0.425,0.169,0.811,0.386,1.157,0.649c0.346,0.264,0.606,0.585,0.779,0.965c0.173,0.38,0.263,0.83,0.271,1.349
					c0.015,0.836-0.199,1.547-0.644,2.134c-0.444,0.587-1.043,1.012-1.795,1.276c-0.753,0.264-1.615,0.373-2.586,0.327
					C425.203,200.391,423.773,199.935,422.553,199.085z M426.166,186.382c0-0.256,0.081-0.454,0.243-0.593
					c0.162-0.139,0.341-0.207,0.536-0.203c0.196,0.004,0.375,0.077,0.536,0.22c0.162,0.143,0.243,0.335,0.243,0.576v2.845h-1.558
					V186.382z M426.381,199.796h1.569v2.823c0,0.324-0.132,0.555-0.395,0.694c-0.263,0.139-0.525,0.143-0.785,0.011
					c-0.26-0.132-0.39-0.367-0.39-0.706V199.796z"/>
			</g>
		</g>
	</g>
</g>
<g id="Character_1_">
	<g>
		<path style="fill:#FFFFFF;stroke:#263238;stroke-miterlimit:10;" d="M391.932,250.786c0,0-0.998,6.942-1.657,6.957
			s-3.293,0.073-3.293,0.073s-1.068,3.813-3.337,5.511c-2.269,1.698-5.588,0.619-7.264-0.662c-1.676-1.281-3.034-3.063-3.034-3.063
			S387.449,249.239,391.932,250.786z"/>
		<path style="fill:#263238;stroke:#263238;stroke-miterlimit:10;" d="M379.735,324.374c0,0,18.846,2.874,20.163,2.845
			c1.317-0.029,6.868-2.295,8.508-2.661s5.361-3.415,5.361-3.415l-16.306,0.199l-18.177-9.809L379.735,324.374z"/>
		<path style="fill:#FFFFFF;stroke:#263238;stroke-miterlimit:10;" d="M408.406,324.558c1.639-0.366,5.361-3.415,5.361-3.415
			l-16.306,0.199c0,0-2.452,0.879-2.232,3.345c0.079,0.884,0.707,1.604,1.476,2.169c1.684,0.226,2.894,0.37,3.193,0.363
			C401.216,327.19,406.767,324.924,408.406,324.558z"/>
		<path style="fill:#3B3B3B;stroke:#263238;stroke-miterlimit:10;" d="M355.236,348.49c0,0,1.277,34.477,1.401,40.056
			c0.125,5.579-5.938,18.146-5.233,27.011c0.705,8.864,1.654,28.633,1.654,28.633l6.847-0.153c0,0,0.901-5.094,2.794-11.226
			c1.893-6.131,4.214-15.824,4.788-24.21c0.574-8.385,3.851-32.054,0.756-45.686s-7.305-20.388-10.585-19.553
			C354.379,344.196,355.236,348.49,355.236,348.49z"/>
		<path style="fill:#666666;stroke:#263238;stroke-miterlimit:10;" d="M351.002,329.302c0,0-1.802,10.189,0.599,15.463
			c2.401,5.275,6.263,19.143,8.473,27.212c2.21,8.069,2.656,16.686,0.538,24.091c-2.118,7.405-0.635,17.013,1.062,24.84
			c1.697,7.827,4.347,24.26,4.347,24.26l6.34-0.142c0,0,2.837-32.031,4.442-39.679c1.605-7.647,3.114-19.605,3.384-30.268
			c0.27-10.662-0.528-35.001-0.528-35.001l0.32-8.38L351.002,329.302z"/>
		<g>
			<path style="fill:#FFFFFF;stroke:#263238;stroke-miterlimit:10;" d="M359.932,443.9c0,0,1.766,1.344,3.096,2.311
				c1.33,0.967,7.133,1.934,7.495,2.176c0.363,0.242,1.088,1.088,1.088,1.088v0.604h-19.826c0,0-0.638-3.96,1.174-6.043
				c0.04-0.046,0.082-0.092,0.124-0.136H359.932z"/>
			<path style="fill:#FFFFFF;stroke:#263238;stroke-miterlimit:10;" d="M351.69,449.017h19.51c0.228,0.243,0.412,0.457,0.412,0.457
				v0.604h-19.826C351.785,450.079,351.719,449.655,351.69,449.017z"/>
		</g>
		<g>
			<path style="fill:#FFFFFF;stroke:#263238;stroke-miterlimit:10;" d="M372.36,445.026c0,0,5.659,3.602,8.802,4.206
				c3.143,0.604,5.44,1.692,5.561,2.176c0.121,0.484-20.914,0-20.914,0s-0.725,0-0.725-2.418c0-2.418,0.937-3.823,0.937-3.823
				L372.36,445.026z"/>
			<path style="fill:#FFFFFF;stroke:#263238;stroke-miterlimit:10;" d="M365.809,451.409c0,0-0.431-0.014-0.628-1.135h19.654
				c1.116,0.44,1.824,0.875,1.888,1.135C386.844,451.892,365.809,451.409,365.809,451.409z"/>
		</g>
		<path style="fill:#263238;stroke:#263238;stroke-miterlimit:10;" d="M392.159,234.722c0,0,6.625,9.949,8.387,11.634
			c1.762,1.685-9.463,6.368-13.855,8.19c-4.392,1.822-13.139,7.189-13.85,8.436c-0.711,1.247,1.559,3.659,3.6,6.815
			c2.041,3.156,4.224,12.712,4.602,18.614c0.378,5.902-0.595,17.499,0.516,23.138c1.111,5.64,1.353,16.47,1.386,17.947
			c0.033,1.477-1.378,4.464-3.325,5.492c-1.947,1.029-18.254-1.316-23.937-2.175c-5.684-0.858-6.641,0.395-6.947-2.308
			c-0.307-2.702,1.34-6.187,1.29-8.402c-0.049-2.215-2.831-27.52-3.449-33.171c-0.597-5.456,1.107-11.176,4.044-15.754
			c1.442-2.247,3.439-3.918,5.029-6.014c0.706-0.931,3.503-4.091,3.374-5.354c0,0-0.947-9.338,0.097-17.734
			c1.044-8.397,5.791-16.383,12.662-17.522c6.87-1.139,10.853,0.743,13.588,1.913S392.159,234.722,392.159,234.722z"/>
		<g>
			<g>
				<path style="fill:#263238;stroke:#263238;stroke-miterlimit:10;" d="M356.834,280.072c0,0-4.051,3.056-3.944,7.831
					c0.107,4.775,5.755,29.033,6.634,31.485c0.879,2.452,4.673,2.696,5.504,3.007c0.831,0.311,33.336-12.277,33.336-12.277
					s3.85,2.715,5.332,2.682c1.482-0.033,5.599-0.125,5.599-0.125s1.709,2.763,2.203,2.752c0.494-0.011,0.3-1.325,0.113-2.309
					c-0.187-0.984-1.065-3.436-1.065-3.436s-4.509-2.7-6.66-3.146c-2.152-0.446-4.475-1.218-5.785-0.859
					c-1.31,0.359-27.577,4.57-27.577,4.57s0.595-17.642,0.181-21.422s-1.984-7.699-4.963-8.292"/>
				<path style="fill:none;stroke:#666666;stroke-miterlimit:10;" d="M375.804,319.157c0,0-10.907,3.749-13.975,3.749
					s-5.453-6.135-5.453-10.907c0-4.772-3.068-20.11-3.068-25.222c0-5.113,4.431-8.18,4.431-8.18"/>
				<path style="fill:none;stroke:#666666;stroke-miterlimit:10;" d="M367.624,282.687c0,0,3.409,3.068,2.727,10.907
					c-0.337,3.872,0.172,16.652,0.172,16.652l8.349-1.996"/>
			</g>
			<path style="fill:#FFFFFF;stroke:#263238;stroke-miterlimit:10;" d="M403.696,312.801c1.482-0.033,5.599-0.125,5.599-0.125
				s1.709,2.763,2.203,2.752c0.494-0.011,0.3-1.325,0.113-2.309c-0.187-0.984-1.065-3.436-1.065-3.436s-4.509-2.7-6.66-3.146
				c-2.152-0.446-4.475-1.218-5.785-0.859c-0.349,0.096-2.475,0.465-5.395,0.955l1.139,5.23c2.739-1.053,4.52-1.742,4.52-1.742
				S402.214,312.834,403.696,312.801z"/>
		</g>
		
			<rect x="419.555" y="290.067" transform="matrix(0.9751 0.222 -0.222 0.9751 78.2779 -85.7137)" style="fill:#C6FF00;stroke:#263238;stroke-miterlimit:10;" width="1.812" height="30.636"/>
		<g>
			
				<rect x="381.467" y="319.642" transform="matrix(0.9998 -0.0223 0.0223 0.9998 -7.0539 9.0026)" style="fill:#C6FF00;stroke:#263238;stroke-miterlimit:10;" width="36.731" height="1.812"/>
		</g>
	</g>
</g>
<g id="Device_1_">
	<polygon style="fill:#263238;" points="426.58,278.59 434.434,260.638 418.726,260.638 	"/>
	<g>
		<g>
			<g>
				<defs>
					<path id="XMLID_147_" d="M255.198,422.339v-23.79h-71.569v23.79c0,7.763-2.678,15.299-7.601,21.385l-3.134,3.875h93.039
						l-3.134-3.875C257.876,437.638,255.198,430.102,255.198,422.339z"/>
				</defs>
				<use xlink:href="#XMLID_147_"  style="overflow:visible;fill:#FFFFFF;"/>
				<clipPath id="XMLID_00000125603647277200305180000004247286871453614726_">
					<use xlink:href="#XMLID_147_"  style="overflow:visible;"/>
				</clipPath>
				<path style="clip-path:url(#XMLID_00000125603647277200305180000004247286871453614726_);fill:#263238;" d="M179.235,413.92
					h80.356c-2.864-5.074-4.394-10.801-4.394-16.66v-4.243V373.47h-71.569v19.548v4.243
					C183.629,403.118,182.1,408.846,179.235,413.92z"/>
				
					<use xlink:href="#XMLID_147_"  style="overflow:visible;fill:none;stroke:#263238;stroke-linecap:round;stroke-linejoin:round;stroke-miterlimit:10;"/>
			</g>
			
				<path id="XMLID_146_" style="fill:#263238;stroke:#263238;stroke-linecap:round;stroke-linejoin:round;stroke-miterlimit:10;" d="
				M354.748,406.05H84.079c-4.686,0-8.484-3.798-8.484-8.484V203.331c0-4.686,3.799-8.484,8.484-8.484h270.669
				c4.686,0,8.484,3.799,8.484,8.484v194.235C363.232,402.252,359.434,406.05,354.748,406.05z"/>
			
				<path id="XMLID_145_" style="fill:#FFFFFF;stroke:#263238;stroke-linecap:round;stroke-linejoin:round;stroke-miterlimit:10;" d="
				M354.748,406.05H84.079c-4.686,0-8.484-3.798-8.484-8.484v-24.345h287.638v24.345C363.232,402.252,359.434,406.05,354.748,406.05
				z"/>
			
				<rect id="XMLID_144_" x="90.063" y="207.986" style="fill:#C6FF00;stroke:#FFFFFF;stroke-linecap:round;stroke-linejoin:round;stroke-miterlimit:10;" width="258.701" height="149.215"/>
			
				<rect id="XMLID_142_" x="172.894" y="447.599" style="fill:#FFFFFF;stroke:#263238;stroke-linecap:round;stroke-linejoin:round;stroke-miterlimit:10;" width="93.059" height="4.248"/>
		</g>
		<g>
			<g>
				<polygon style="fill:#FFFFFF;stroke:#263238;stroke-linecap:round;stroke-linejoin:round;stroke-miterlimit:10;" points="
					129.814,239.083 134.421,220.338 120.442,220.338 				"/>
				<polygon style="fill:#C6FF00;stroke:#263238;stroke-linecap:round;stroke-linejoin:round;stroke-miterlimit:10;" points="
					129.814,239.083 130.839,221.049 121.943,221.049 				"/>
				<polygon style="fill:#C6FF00;stroke:#263238;stroke-linecap:round;stroke-linejoin:round;stroke-miterlimit:10;" points="
					129.814,239.083 128.863,219.646 119.968,219.646 				"/>
				<polygon style="fill:#FFFFFF;stroke:#263238;stroke-linecap:round;stroke-linejoin:round;stroke-miterlimit:10;" points="
					113.206,218.75 110.911,216.152 98.838,216.152 104.503,239.083 129.814,239.083 125.801,218.75 				"/>
			</g>
			<g>
				<polygon style="fill:#FFFFFF;stroke:#263238;stroke-linecap:round;stroke-linejoin:round;stroke-miterlimit:10;" points="
					129.814,272.992 134.421,254.247 120.442,254.247 				"/>
				<polygon style="fill:#C6FF00;stroke:#263238;stroke-linecap:round;stroke-linejoin:round;stroke-miterlimit:10;" points="
					129.814,272.992 130.839,254.958 121.943,254.958 				"/>
				<polygon style="fill:#C6FF00;stroke:#263238;stroke-linecap:round;stroke-linejoin:round;stroke-miterlimit:10;" points="
					129.814,272.992 128.863,253.555 119.968,253.555 				"/>
				<polygon style="fill:#FFFFFF;stroke:#263238;stroke-linecap:round;stroke-linejoin:round;stroke-miterlimit:10;" points="
					113.206,252.659 110.911,250.061 98.838,250.061 104.503,272.992 129.814,272.992 125.801,252.659 				"/>
			</g>
			<g>
				<polygon style="fill:#FFFFFF;stroke:#263238;stroke-linecap:round;stroke-linejoin:round;stroke-miterlimit:10;" points="
					129.814,306.901 134.421,288.156 120.442,288.156 				"/>
				<polygon style="fill:#C6FF00;stroke:#263238;stroke-linecap:round;stroke-linejoin:round;stroke-miterlimit:10;" points="
					129.814,306.901 130.839,288.867 121.943,288.867 				"/>
				<polygon style="fill:#C6FF00;stroke:#263238;stroke-linecap:round;stroke-linejoin:round;stroke-miterlimit:10;" points="
					129.814,306.901 128.863,287.464 119.968,287.464 				"/>
				<polygon style="fill:#FFFFFF;stroke:#263238;stroke-linecap:round;stroke-linejoin:round;stroke-miterlimit:10;" points="
					113.206,286.568 110.911,283.97 98.838,283.97 104.503,306.901 129.814,306.901 125.801,286.568 				"/>
			</g>
			<g>
				<polygon style="fill:#FFFFFF;stroke:#263238;stroke-linecap:round;stroke-linejoin:round;stroke-miterlimit:10;" points="
					337.546,319.271 342.152,300.527 328.173,300.527 				"/>
				<polygon style="fill:#C6FF00;stroke:#263238;stroke-linecap:round;stroke-linejoin:round;stroke-miterlimit:10;" points="
					337.546,319.271 338.571,301.238 329.675,301.238 				"/>
				<polygon style="fill:#C6FF00;stroke:#263238;stroke-linecap:round;stroke-linejoin:round;stroke-miterlimit:10;" points="
					337.546,319.271 336.595,299.835 327.699,299.835 				"/>
				<polygon style="fill:#FFFFFF;stroke:#263238;stroke-linecap:round;stroke-linejoin:round;stroke-miterlimit:10;" points="
					320.938,298.938 318.642,296.34 306.569,296.34 312.234,319.271 337.546,319.271 333.532,298.938 				"/>
			</g>
			<g>
				<polygon style="fill:#FFFFFF;stroke:#263238;stroke-linecap:round;stroke-linejoin:round;stroke-miterlimit:10;" points="
					337.546,238.836 342.152,220.092 328.173,220.092 				"/>
				<polygon style="fill:#C6FF00;stroke:#263238;stroke-linecap:round;stroke-linejoin:round;stroke-miterlimit:10;" points="
					337.546,238.836 338.571,220.803 329.675,220.803 				"/>
				<polygon style="fill:#C6FF00;stroke:#263238;stroke-linecap:round;stroke-linejoin:round;stroke-miterlimit:10;" points="
					337.546,238.836 336.595,219.399 327.699,219.399 				"/>
				<polygon style="fill:#FFFFFF;stroke:#263238;stroke-linecap:round;stroke-linejoin:round;stroke-miterlimit:10;" points="
					320.938,218.503 318.642,215.905 306.569,215.905 312.234,238.836 337.546,238.836 333.532,218.503 				"/>
			</g>
			<g>
				<polygon style="fill:#FFFFFF;stroke:#263238;stroke-linecap:round;stroke-linejoin:round;stroke-miterlimit:10;" points="
					337.546,351.603 342.152,332.859 328.173,332.859 				"/>
				<polygon style="fill:#C6FF00;stroke:#263238;stroke-linecap:round;stroke-linejoin:round;stroke-miterlimit:10;" points="
					337.546,351.603 338.571,333.57 329.675,333.57 				"/>
				<polygon style="fill:#C6FF00;stroke:#263238;stroke-linecap:round;stroke-linejoin:round;stroke-miterlimit:10;" points="
					337.546,351.603 336.595,332.167 327.699,332.167 				"/>
				<polygon style="fill:#FFFFFF;stroke:#263238;stroke-linecap:round;stroke-linejoin:round;stroke-miterlimit:10;" points="
					320.938,331.27 318.642,328.672 306.569,328.672 312.234,351.603 337.546,351.603 333.532,331.27 				"/>
			</g>
		</g>
		<g>
			<g>
				<g>
					<g>
						<polygon style="fill:#FFFFFF;" points="237.552,305.46 236.552,305.46 236.552,244.784 259.453,244.784 259.453,219.961 
							260.453,219.961 260.453,245.784 237.552,245.784 						"/>
					</g>
					<g>
						<rect x="245.5" y="219.961" style="fill:#FFFFFF;" width="1" height="25.039"/>
					</g>
					<g>
						<path style="fill:#FFFFFF;" d="M261.427,219.961c0,0.814-0.66,1.474-1.474,1.474s-1.474-0.66-1.474-1.474
							c0-0.814,0.66-1.474,1.474-1.474S261.427,219.147,261.427,219.961z"/>
						<path style="fill:#FFFFFF;" d="M259.953,221.936c-1.089,0-1.975-0.886-1.975-1.974c0-1.088,0.886-1.974,1.975-1.974
							c1.089,0,1.975,0.886,1.975,1.974C261.928,221.05,261.042,221.936,259.953,221.936z M259.953,218.987
							c-0.537,0-0.975,0.437-0.975,0.974c0,0.537,0.438,0.974,0.975,0.974s0.975-0.437,0.975-0.974
							C260.928,219.424,260.49,218.987,259.953,218.987z"/>
					</g>
					<g>
						<path style="fill:#FFFFFF;" d="M247.53,219.961c0,0.814-0.66,1.474-1.474,1.474c-0.814,0-1.474-0.66-1.474-1.474
							c0-0.814,0.66-1.474,1.474-1.474C246.87,218.487,247.53,219.147,247.53,219.961z"/>
						<path style="fill:#FFFFFF;" d="M246.056,221.936c-1.088,0-1.974-0.886-1.974-1.974c0-1.088,0.886-1.974,1.974-1.974
							c1.089,0,1.975,0.886,1.975,1.974C248.03,221.05,247.145,221.936,246.056,221.936z M246.056,218.987
							c-0.537,0-0.974,0.437-0.974,0.974c0,0.537,0.437,0.974,0.974,0.974s0.975-0.437,0.975-0.974
							C247.03,219.424,246.593,218.987,246.056,218.987z"/>
					</g>
				</g>
				<g>
					<g>
						<polygon style="fill:#FFFFFF;" points="202.08,271.185 201.08,271.185 201.08,246.586 193.845,239.352 193.845,221.057 
							194.845,221.057 194.845,238.938 202.08,246.172 						"/>
					</g>
					<g>
						<path style="fill:#FFFFFF;" d="M195.831,220.311c0,0.814-0.66,1.474-1.474,1.474c-0.814,0-1.474-0.66-1.474-1.474
							c0-0.814,0.66-1.474,1.474-1.474C195.171,218.836,195.831,219.496,195.831,220.311z"/>
						<path style="fill:#FFFFFF;" d="M194.356,222.285c-1.088,0-1.974-0.886-1.974-1.975c0-1.088,0.886-1.974,1.974-1.974
							c1.088,0,1.974,0.886,1.974,1.974C196.331,221.399,195.445,222.285,194.356,222.285z M194.356,219.336
							c-0.537,0-0.974,0.437-0.974,0.974c0,0.538,0.437,0.975,0.974,0.975c0.537,0,0.974-0.437,0.974-0.975
							C195.331,219.773,194.894,219.336,194.356,219.336z"/>
					</g>
				</g>
				<g>
					<g>
						<polygon style="fill:#FFFFFF;" points="201.232,282.489 181.612,282.489 181.612,267.503 155.239,267.503 155.239,266.503 
							182.612,266.503 182.612,281.489 201.232,281.489 						"/>
					</g>
					<g>
						<circle style="fill:#FFFFFF;" cx="155.239" cy="267.003" r="1.474"/>
						<path style="fill:#FFFFFF;" d="M155.239,268.978c-1.088,0-1.974-0.886-1.974-1.975c0-1.089,0.886-1.975,1.974-1.975
							c1.089,0,1.975,0.886,1.975,1.975C157.213,268.092,156.328,268.978,155.239,268.978z M155.239,266.028
							c-0.537,0-0.974,0.438-0.974,0.975s0.437,0.975,0.974,0.975c0.538,0,0.975-0.438,0.975-0.975S155.776,266.028,155.239,266.028
							z"/>
					</g>
				</g>
				<g>
					<g>
						<polygon style="fill:#FFFFFF;" points="249.943,303.396 149.188,303.396 149.188,287.376 127.983,287.376 127.983,286.376 
							150.188,286.376 150.188,302.396 249.943,302.396 						"/>
					</g>
					<g>
						<path style="fill:#FFFFFF;" d="M129.501,286.831c0,0.814-0.66,1.474-1.474,1.474c-0.814,0-1.474-0.66-1.474-1.474
							s0.66-1.474,1.474-1.474C128.841,285.356,129.501,286.016,129.501,286.831z"/>
						<path style="fill:#FFFFFF;" d="M128.026,288.805c-1.088,0-1.974-0.886-1.974-1.974c0-1.089,0.886-1.975,1.974-1.975
							c1.089,0,1.975,0.886,1.975,1.975C130.001,287.919,129.115,288.805,128.026,288.805z M128.026,285.856
							c-0.537,0-0.974,0.438-0.974,0.975c0,0.537,0.437,0.974,0.974,0.974c0.538,0,0.975-0.436,0.975-0.974
							C129.001,286.294,128.564,285.856,128.026,285.856z"/>
					</g>
				</g>
				<g>
					<g>
						<polygon style="fill:#FFFFFF;" points="195.518,341.048 169.696,341.048 169.696,340.048 194.518,340.048 194.518,325.06 
							203.303,325.06 203.303,312.124 204.303,312.124 204.303,326.06 195.518,326.06 						"/>
					</g>
					<g>
						<path style="fill:#FFFFFF;" d="M171.299,340.266c0,0.814-0.66,1.474-1.474,1.474s-1.474-0.66-1.474-1.474
							c0-0.814,0.66-1.474,1.474-1.474S171.299,339.451,171.299,340.266z"/>
						<path style="fill:#FFFFFF;" d="M169.824,342.24c-1.088,0-1.974-0.886-1.974-1.975c0-1.089,0.886-1.975,1.974-1.975
							c1.089,0,1.975,0.886,1.975,1.975C171.799,341.354,170.913,342.24,169.824,342.24z M169.824,339.291
							c-0.537,0-0.974,0.438-0.974,0.975s0.437,0.975,0.974,0.975c0.538,0,0.975-0.438,0.975-0.975S170.362,339.291,169.824,339.291
							z"/>
					</g>
				</g>
				<g>
					<g>
						<polygon style="fill:#FFFFFF;" points="267.602,341.048 241.781,341.048 241.781,326.06 232.995,326.06 232.995,312.124 
							233.995,312.124 233.995,325.06 242.781,325.06 242.781,340.048 267.602,340.048 						"/>
					</g>
					<g>
						<path style="fill:#FFFFFF;" d="M266,340.266c0,0.814,0.66,1.474,1.474,1.474c0.814,0,1.474-0.66,1.474-1.474
							c0-0.814-0.66-1.474-1.474-1.474C266.66,338.791,266,339.451,266,340.266z"/>
						<path style="fill:#FFFFFF;" d="M267.475,342.24c-1.089,0-1.975-0.886-1.975-1.975c0-1.089,0.886-1.975,1.975-1.975
							c1.088,0,1.974,0.886,1.974,1.975C269.448,341.354,268.563,342.24,267.475,342.24z M267.475,339.291
							c-0.537,0-0.975,0.438-0.975,0.975s0.438,0.975,0.975,0.975c0.537,0,0.974-0.438,0.974-0.975S268.012,339.291,267.475,339.291
							z"/>
					</g>
				</g>
				<g>
					<g>
						<polygon style="fill:#FFFFFF;" points="264.614,293.386 246.026,293.386 246.026,292.386 263.614,292.386 263.614,280.5 
							275.5,280.5 275.5,273.782 286.336,273.782 286.336,274.782 276.5,274.782 276.5,281.5 264.614,281.5 						"/>
					</g>
					<g>
						<path style="fill:#FFFFFF;" d="M288.505,273.968c0,0.814-0.66,1.474-1.474,1.474c-0.814,0-1.474-0.66-1.474-1.474
							c0-0.814,0.66-1.474,1.474-1.474C287.844,272.493,288.505,273.153,288.505,273.968z"/>
						<path style="fill:#FFFFFF;" d="M287.03,275.941c-1.089,0-1.975-0.886-1.975-1.974c0-1.089,0.886-1.975,1.975-1.975
							c1.089,0,1.975,0.886,1.975,1.975C289.005,275.056,288.119,275.941,287.03,275.941z M287.03,272.993
							c-0.537,0-0.975,0.438-0.975,0.975s0.438,0.974,0.975,0.974c0.537,0,0.975-0.436,0.975-0.974S287.567,272.993,287.03,272.993z
							"/>
					</g>
				</g>
				<g>
					<g>
						<polygon style="fill:#FFFFFF;" points="303.453,320.021 302.453,320.021 302.453,313.285 288.5,313.285 288.5,304.5 
							256.442,304.5 256.442,303.5 289.5,303.5 289.5,312.285 303.453,312.285 						"/>
					</g>
					<g>
						<path style="fill:#FFFFFF;" d="M302.993,322.45c-0.814,0-1.474-0.66-1.474-1.474c0-0.814,0.66-1.474,1.474-1.474
							c0.814,0,1.474,0.66,1.474,1.474C304.468,321.79,303.808,322.45,302.993,322.45z"/>
						<path style="fill:#FFFFFF;" d="M302.993,322.95c-1.088,0-1.974-0.886-1.974-1.975c0-1.088,0.886-1.974,1.974-1.974
							c1.089,0,1.975,0.886,1.975,1.974C304.968,322.065,304.082,322.95,302.993,322.95z M302.993,320.002
							c-0.537,0-0.974,0.436-0.974,0.974c0,0.537,0.437,0.975,0.974,0.975s0.975-0.438,0.975-0.975
							C303.968,320.439,303.53,320.002,302.993,320.002z"/>
					</g>
				</g>
			</g>
			<g>
				<path style="fill:#263238;stroke:#263238;stroke-linecap:round;stroke-linejoin:round;stroke-miterlimit:10;" d="
					M222.214,242.574l39.214,67.921c1.265,2.192-0.316,4.931-2.847,4.931h-78.428c-2.531,0-4.113-2.74-2.847-4.931l39.214-67.921
					C217.785,240.382,220.949,240.382,222.214,242.574z"/>
				<path style="fill:#263238;stroke:#C6FF00;stroke-linecap:round;stroke-linejoin:round;stroke-miterlimit:10;" d="
					M220.055,244.352l38.726,67.075c0.306,0.529-0.076,1.191-0.688,1.191h-77.452c-0.611,0-0.993-0.662-0.688-1.191l38.726-67.075
					C218.985,243.822,219.749,243.822,220.055,244.352z"/>
				<g>
					<path style="fill:#FFFFFF;" d="M213.278,265.685c-0.3-2.457,0.641-4.203,2.82-5.24c2.18-1.037,4.359-1.037,6.539,0
						c2.179,1.037,3.119,2.783,2.82,5.24l-2.98,23.751c-0.107,0.983-0.471,1.752-1.09,2.308c-0.62,0.556-1.288,0.834-2.004,0.834
						c-0.716,0-1.384-0.277-2.003-0.834c-0.62-0.556-0.983-1.324-1.09-2.308L213.278,265.685z M215.633,307.081
						c-1.057-1.057-1.587-2.356-1.587-3.894c0-1.495,0.513-2.784,1.539-3.863c1.025-1.078,2.318-1.618,3.878-1.618
						c1.453,0,2.713,0.512,3.782,1.538c1.068,1.027,1.603,2.341,1.603,3.943c0,1.495-0.519,2.783-1.554,3.862
						c-1.037,1.079-2.313,1.619-3.83,1.619C217.967,308.668,216.691,308.139,215.633,307.081z"/>
				</g>
			</g>
		</g>
	</g>
</g>
<g id="Bugs">
	<g>
		<g>
			<path style="fill:#263238;" d="M282.322,301.289l2.165-2.256l3.964-0.665c0.142-0.024,0.255-0.13,0.289-0.269l0.427-1.755
				l6.255,2.263c0,0,1.107-0.928,2.27-2.524l0.845,1.922c0.022,0.05,0.055,0.094,0.097,0.13l2.227,1.885l0.696,3.041
				c0.044,0.193,0.237,0.314,0.43,0.27c0.193-0.044,0.314-0.237,0.27-0.43l-0.723-3.158c-0.017-0.076-0.059-0.144-0.118-0.194
				l-2.255-1.909l-0.99-2.251c0.107-0.164,0.214-0.334,0.318-0.508l1.919,0.467l0.343-1.408l1.376,0.335
				c0.989,0.982,5.421,5.512,6.193,8.576c0.048,0.192,0.244,0.309,0.436,0.26c0.192-0.048,0.309-0.244,0.26-0.436
				c-0.804-3.188-5.095-7.629-6.289-8.817l0.626-2.574c1.646-0.45,6.782-1.963,9.26-3.922c0.155-0.123,0.182-0.349,0.059-0.504
				c-0.123-0.155-0.349-0.182-0.504-0.059c-2.468,1.951-7.948,3.507-9.23,3.853l-1.487-0.362l0.321-1.32l-1.569-0.382
				c-0.051-0.661-0.167-1.281-0.315-1.839l2.39-1.93l2.88-0.659c0.076-0.017,0.144-0.059,0.194-0.118l2.093-2.473
				c0.128-0.151,0.109-0.378-0.042-0.506c-0.151-0.128-0.378-0.109-0.506,0.042l-2.016,2.382l-2.844,0.651
				c-0.053,0.012-0.103,0.036-0.145,0.071l-2.229,1.8c-0.456-1.336-1.019-2.18-1.019-2.18s-3.032-0.345-6.274-0.654l0.308-1.264
				c0.034-0.14-0.018-0.286-0.133-0.372l-3.215-2.412l-0.886-2.999c-0.056-0.19-0.256-0.299-0.446-0.243
				c-0.127,0.038-0.218,0.139-0.247,0.26c-0.014,0.06-0.014,0.124,0.005,0.186l0.92,3.113c0.022,0.074,0.067,0.139,0.129,0.185
				l3.121,2.341l-0.276,1.136c-2.466-0.228-4.932-0.419-6.176-0.408l-0.962-3.06c-0.048-0.151-0.189-0.254-0.348-0.251l-5.242,0.075
				l-1.441-1.909c-0.12-0.158-0.345-0.19-0.503-0.07c-0.069,0.052-0.114,0.124-0.133,0.202c-0.025,0.101-0.005,0.212,0.062,0.301
				l1.55,2.055c0.069,0.091,0.177,0.145,0.292,0.143l5.157-0.074l0.831,2.643c-1.4,0.199-3.583,0.972-5.484,1.727
				c-1.869,0.743-2.406,3.134-1.037,4.607l3.824,4.116l-1.75,1.762l-4.546-2.435c-0.101-0.054-0.221-0.057-0.325-0.007l-2.321,1.113
				c-0.101,0.048-0.169,0.138-0.194,0.239c-0.019,0.078-0.012,0.162,0.025,0.24c0.086,0.179,0.3,0.254,0.479,0.169l2.157-1.034
				l4.621,2.476c0.14,0.075,0.313,0.049,0.424-0.064l1.918-1.932l0.3,0.323l5.656,2.046l-0.39,1.601l-3.847,0.645
				c-0.076,0.013-0.146,0.05-0.2,0.105l-2.247,2.342c-0.046,0.047-0.075,0.104-0.09,0.163c-0.029,0.12,0.004,0.253,0.1,0.344
				C281.957,301.437,282.184,301.432,282.322,301.289z"/>
			<g>
				<polygon style="fill:#7A7A7A;" points="285.665,283.558 286.478,287.11 284.839,288.482 285.795,290.299 283.091,293.369 
					295.106,297.225 293.285,290.538 297.971,284.689 				"/>
				<path style="fill:#263238;" d="M282.742,293.284c0.013-0.056,0.04-0.108,0.079-0.152l2.54-2.884l-0.84-1.598
					c-0.079-0.15-0.043-0.334,0.087-0.443l1.47-1.231l-0.764-3.339c-0.026-0.112,0.004-0.23,0.08-0.317
					c0.076-0.087,0.189-0.132,0.303-0.121l12.306,1.131c0.132,0.012,0.246,0.095,0.298,0.217c0.052,0.122,0.032,0.262-0.05,0.365
					l-4.571,5.707l1.773,6.511c0.034,0.127-0.003,0.263-0.098,0.354c-0.095,0.091-0.232,0.123-0.358,0.082l-12.016-3.856
					c-0.115-0.037-0.204-0.13-0.237-0.246C282.728,293.405,282.727,293.342,282.742,293.284z M286.144,290.384
					c-0.013,0.055-0.04,0.108-0.079,0.152l-2.341,2.658l10.863,3.486l-1.647-6.049c-0.03-0.111-0.005-0.229,0.066-0.319l4.268-5.328
					l-11.148-1.025l0.702,3.07c0.03,0.132-0.016,0.269-0.12,0.355l-1.416,1.186l0.821,1.56
					C286.154,290.211,286.164,290.301,286.144,290.384z"/>
			</g>
			<g>
				<polygon style="fill:#7A7A7A;" points="297.362,285.659 293.285,290.538 294.987,295.798 298.871,291.711 				"/>
				<path style="fill:#263238;" d="M292.936,290.453c0.013-0.053,0.038-0.102,0.073-0.145l4.077-4.879
					c0.087-0.104,0.224-0.15,0.356-0.12c0.132,0.03,0.235,0.132,0.268,0.263l1.509,6.052c0.03,0.119-0.004,0.245-0.088,0.334
					l-3.884,4.087c-0.087,0.092-0.217,0.131-0.34,0.103c-0.123-0.028-0.223-0.119-0.262-0.24l-1.702-5.26
					C292.923,290.584,292.921,290.517,292.936,290.453z M297.184,286.431l-3.496,4.185l1.455,4.497l3.332-3.507L297.184,286.431z"/>
			</g>
		</g>
		<g>
			<path style="fill:#263238;" d="M182.816,230.91l-2.717,1.547l-3.989-0.49c-0.143-0.018-0.282,0.052-0.354,0.176l-0.909,1.561
				l-5.354-3.949c0,0-1.325,0.575-2.894,1.774l-0.263-2.083c-0.007-0.054-0.026-0.106-0.056-0.152l-1.599-2.44l0.198-3.114
				c0.013-0.198-0.138-0.369-0.336-0.381c-0.198-0.012-0.369,0.138-0.381,0.336l-0.205,3.233c-0.005,0.077,0.016,0.155,0.058,0.22
				l1.619,2.471l0.308,2.44c-0.149,0.127-0.3,0.259-0.45,0.397l-1.707-0.994l-0.729,1.252l-1.224-0.712
				c-0.669-1.222-3.63-6.827-3.499-9.983c0.008-0.198-0.146-0.365-0.344-0.374c-0.198-0.008-0.365,0.146-0.374,0.344
				c-0.136,3.285,2.715,8.763,3.522,10.242l-1.333,2.289c-1.706-0.036-7.06-0.047-9.993,1.126c-0.184,0.074-0.274,0.283-0.2,0.467
				c0.074,0.184,0.283,0.274,0.467,0.2c2.921-1.168,8.618-1.102,9.944-1.068l1.322,0.77l-0.683,1.174l1.396,0.812
				c-0.139,0.648-0.204,1.275-0.221,1.853l-2.841,1.171l-2.948-0.187c-0.077-0.005-0.155,0.015-0.22,0.058l-2.71,1.775
				c-0.166,0.109-0.212,0.331-0.104,0.497c0.109,0.166,0.331,0.212,0.497,0.104l2.61-1.71l2.911,0.185
				c0.055,0.003,0.109-0.006,0.16-0.026l2.649-1.092c0.057,1.411,0.358,2.379,0.358,2.379s2.809,1.193,5.829,2.411l-0.654,1.124
				c-0.072,0.124-0.064,0.279,0.022,0.395l2.396,3.226l-0.003,3.127c0,0.198,0.16,0.359,0.359,0.359
				c0.133,0,0.249-0.072,0.311-0.179c0.031-0.053,0.048-0.114,0.049-0.18l0.003-3.246c0-0.077-0.025-0.152-0.071-0.214l-2.326-3.132
				l0.588-1.01c2.299,0.92,4.609,1.805,5.804,2.147l0.052,3.207c0.003,0.159,0.109,0.297,0.262,0.34l5.047,1.419l0.838,2.24
				c0.069,0.186,0.276,0.28,0.462,0.211c0.081-0.03,0.144-0.086,0.184-0.156c0.052-0.09,0.065-0.202,0.026-0.307l-0.902-2.411
				c-0.04-0.107-0.129-0.189-0.239-0.22l-4.965-1.396l-0.045-2.77c1.399,0.208,3.712,0.087,5.748-0.096
				c2.003-0.18,3.198-2.32,2.304-4.122l-2.496-5.033l2.179-1.192l3.666,3.628c0.081,0.081,0.196,0.117,0.309,0.099l2.542-0.406
				c0.111-0.018,0.201-0.084,0.254-0.174c0.04-0.069,0.058-0.152,0.044-0.237c-0.031-0.196-0.215-0.329-0.411-0.298l-2.362,0.378
				l-3.726-3.688c-0.113-0.112-0.286-0.136-0.425-0.06l-2.388,1.306l-0.196-0.395l-4.84-3.57l0.829-1.424l3.872,0.476
				c0.077,0.009,0.154-0.006,0.221-0.044l2.821-1.606c0.057-0.032,0.102-0.078,0.133-0.131c0.062-0.107,0.068-0.243,0.002-0.359
				C183.207,230.872,182.988,230.812,182.816,230.91z"/>
			<g>
				<polygon style="fill:#7A7A7A;" points="174.568,246.958 174.799,243.321 176.76,242.472 176.36,240.458 179.826,238.284 
					169.403,231.17 169.247,238.099 163.091,242.374 				"/>
				<path style="fill:#263238;" d="M180.136,238.465c-0.029,0.049-0.07,0.092-0.12,0.123l-3.256,2.043l0.351,1.771
					c0.033,0.166-0.054,0.332-0.21,0.399l-1.759,0.762l-0.217,3.418c-0.008,0.115-0.069,0.219-0.167,0.281
					c-0.097,0.061-0.218,0.072-0.325,0.03l-11.476-4.584c-0.123-0.049-0.209-0.161-0.224-0.293c-0.015-0.131,0.043-0.26,0.152-0.336
					l6.005-4.171l0.152-6.746c0.003-0.131,0.078-0.251,0.195-0.311c0.117-0.06,0.258-0.051,0.367,0.023l10.423,7.114
					c0.1,0.068,0.159,0.182,0.157,0.303C180.184,238.354,180.166,238.413,180.136,238.465z M176.05,240.278
					c0.029-0.049,0.069-0.092,0.12-0.124l3.001-1.882l-9.423-6.432l-0.141,6.267c-0.003,0.115-0.06,0.221-0.154,0.287l-5.607,3.894
					l10.396,4.153l0.2-3.143c0.008-0.135,0.092-0.253,0.216-0.307l1.695-0.734l-0.343-1.729
					C175.991,240.441,176.007,240.352,176.05,240.278z"/>
			</g>
			<g>
				<polygon style="fill:#7A7A7A;" points="163.951,241.617 169.247,238.099 169.111,232.572 164.225,235.386 				"/>
				<path style="fill:#263238;" d="M169.557,238.28c-0.027,0.047-0.065,0.087-0.112,0.118l-5.296,3.518
					c-0.113,0.075-0.258,0.08-0.376,0.014c-0.118-0.066-0.188-0.193-0.182-0.328l0.274-6.232c0.005-0.123,0.073-0.234,0.179-0.295
					l4.886-2.814c0.11-0.063,0.245-0.064,0.355-0.002c0.11,0.062,0.18,0.178,0.183,0.304l0.136,5.527
					C169.608,238.158,169.59,238.223,169.557,238.28z M164.341,240.927l4.542-3.018l-0.116-4.725l-4.192,2.414L164.341,240.927z"/>
			</g>
		</g>
		<g>
			<path style="fill:#263238;" d="M205.967,330.352l2.676,1.618l1.517,3.722c0.054,0.133,0.183,0.221,0.326,0.223l1.806,0.032
				l-0.838,6.599c0,0,1.148,0.876,2.96,1.662l-1.69,1.245c-0.044,0.033-0.08,0.074-0.105,0.123l-1.351,2.586l-2.815,1.345
				c-0.179,0.086-0.255,0.3-0.169,0.479c0.086,0.179,0.3,0.255,0.479,0.169l2.923-1.397c0.07-0.034,0.127-0.089,0.163-0.158
				l1.368-2.618l1.98-1.459c0.184,0.069,0.372,0.135,0.566,0.199l-0.035,1.975l1.449,0.026l-0.025,1.416
				c-0.741,1.18-4.191,6.497-7.011,7.922c-0.177,0.089-0.248,0.305-0.159,0.482c0.089,0.177,0.306,0.248,0.482,0.159
				c2.935-1.483,6.327-6.643,7.225-8.068l2.649,0.047c0.8,1.507,3.401,6.187,5.855,8.176c0.154,0.125,0.38,0.101,0.505-0.053
				c0.125-0.154,0.101-0.38-0.053-0.505c-2.444-1.981-5.163-6.987-5.781-8.161l0.027-1.53l1.358,0.024l0.029-1.615
				c0.634-0.195,1.213-0.443,1.725-0.71l2.407,1.909l1.274,2.665c0.033,0.07,0.089,0.127,0.158,0.163l2.871,1.5
				c0.176,0.092,0.393,0.024,0.485-0.152c0.092-0.176,0.024-0.393-0.152-0.485l-2.765-1.445l-1.258-2.632
				c-0.023-0.049-0.058-0.092-0.101-0.126l-2.245-1.781c1.204-0.738,1.903-1.472,1.903-1.472s-0.328-3.034-0.737-6.265l1.301,0.023
				c0.144,0.003,0.275-0.081,0.334-0.212l1.649-3.665l2.732-1.522c0.173-0.097,0.235-0.315,0.139-0.488
				c-0.064-0.116-0.184-0.182-0.308-0.184c-0.061-0.001-0.124,0.013-0.181,0.045l-2.836,1.58c-0.068,0.038-0.121,0.096-0.153,0.166
				l-1.6,3.558l-1.169-0.021c-0.318-2.456-0.672-4.904-0.955-6.115l2.775-1.609c0.137-0.08,0.206-0.24,0.169-0.394l-1.222-5.098
				l1.547-1.824c0.128-0.151,0.11-0.378-0.042-0.506c-0.066-0.056-0.146-0.084-0.226-0.085c-0.104-0.002-0.208,0.041-0.28,0.127
				l-1.665,1.963c-0.074,0.087-0.102,0.205-0.075,0.316l1.202,5.015l-2.397,1.389c-0.5-1.322-1.734-3.283-2.887-4.972
				c-1.134-1.661-3.585-1.661-4.722-0.002l-3.178,4.633l-2.103-1.321l1.38-4.969c0.031-0.11,0.007-0.229-0.064-0.319l-1.594-2.021
				c-0.069-0.088-0.172-0.135-0.276-0.137c-0.08-0.001-0.161,0.024-0.229,0.077c-0.156,0.123-0.182,0.349-0.059,0.504l1.481,1.878
				l-1.403,5.051c-0.042,0.153,0.021,0.316,0.155,0.4l2.305,1.448l-0.25,0.364l-0.757,5.967l-1.648-0.029l-1.472-3.613
				c-0.029-0.072-0.081-0.132-0.147-0.172l-2.777-1.68c-0.056-0.034-0.118-0.051-0.179-0.052c-0.124-0.002-0.245,0.06-0.314,0.173
				C205.743,330.029,205.797,330.25,205.967,330.352z"/>
			<g>
				<polygon style="fill:#7A7A7A;" points="224,329.729 220.711,331.301 219.014,330.003 217.451,331.333 213.863,329.367 
					212.733,341.936 218.859,338.694 225.593,341.984 				"/>
				<path style="fill:#263238;" d="M213.869,329.008c0.057,0.001,0.114,0.016,0.166,0.044l3.371,1.847l1.375-1.17
					c0.129-0.11,0.316-0.115,0.451-0.012l1.523,1.165l3.09-1.477c0.104-0.05,0.225-0.047,0.326,0.008
					c0.101,0.055,0.17,0.155,0.185,0.269l1.593,12.255c0.017,0.131-0.039,0.261-0.147,0.338c-0.107,0.077-0.249,0.089-0.367,0.031
					l-6.57-3.21l-5.964,3.156c-0.116,0.061-0.257,0.055-0.367-0.019c-0.11-0.073-0.171-0.2-0.159-0.331l1.13-12.568
					c0.011-0.121,0.082-0.228,0.189-0.285C213.749,329.021,213.809,329.007,213.869,329.008z M217.444,331.692
					c-0.057-0.001-0.114-0.016-0.166-0.044l-3.106-1.702l-1.021,11.363l5.541-2.932c0.102-0.054,0.223-0.055,0.326-0.005
					l6.134,2.997l-1.443-11.101l-2.841,1.358c-0.122,0.058-0.266,0.043-0.373-0.039l-1.467-1.122l-1.343,1.143
					C217.615,331.664,217.53,331.694,217.444,331.692z"/>
			</g>
			<g>
				<polygon style="fill:#7A7A7A;" points="224.513,341.602 218.859,338.694 214.099,341.507 218.938,344.401 				"/>
				<path style="fill:#263238;" d="M218.865,338.335c0.054,0.001,0.108,0.014,0.158,0.04l5.654,2.908
					c0.12,0.062,0.196,0.186,0.195,0.321c-0.001,0.135-0.077,0.258-0.198,0.319l-5.574,2.799c-0.11,0.055-0.24,0.05-0.345-0.013
					l-4.839-2.894c-0.109-0.065-0.175-0.182-0.175-0.309c0-0.127,0.067-0.244,0.176-0.308l4.76-2.813
					C218.734,338.351,218.8,338.334,218.865,338.335z M223.72,341.599l-4.849-2.494l-4.069,2.405l4.151,2.483L223.72,341.599z"/>
			</g>
		</g>
		<g>
			<path style="fill:#263238;" d="M250.31,253.922l-1.34-2.825l0.787-3.941c0.028-0.141-0.03-0.285-0.149-0.366l-1.489-1.023
				l4.338-5.043c0,0-0.474-1.364-1.553-3.018l2.097-0.107c0.055-0.003,0.108-0.018,0.156-0.044l2.553-1.412l3.09,0.43
				c0.196,0.027,0.378-0.11,0.405-0.306c0.027-0.196-0.11-0.378-0.306-0.405l-3.209-0.446c-0.077-0.011-0.155,0.004-0.223,0.042
				l-2.585,1.43l-2.456,0.125c-0.115-0.158-0.236-0.318-0.362-0.478l1.118-1.628l-1.194-0.82l0.802-1.167
				c1.269-0.576,7.079-3.109,10.217-2.743c0.197,0.023,0.375-0.118,0.398-0.315c0.023-0.197-0.118-0.375-0.315-0.398
				c-3.266-0.382-8.942,2.053-10.476,2.746l-2.183-1.5c0.164-1.699,0.574-7.037-0.376-10.049c-0.06-0.189-0.261-0.294-0.451-0.234
				c-0.189,0.06-0.294,0.261-0.234,0.451c0.947,3,0.455,8.676,0.322,9.996l-0.866,1.261l-1.119-0.769l-0.914,1.331
				c-0.636-0.187-1.256-0.299-1.831-0.359l-0.955-2.92l0.407-2.926c0.011-0.077-0.004-0.155-0.042-0.223l-1.568-2.835
				c-0.096-0.173-0.314-0.236-0.488-0.141c-0.173,0.096-0.236,0.315-0.14,0.488l1.51,2.73l-0.402,2.89
				c-0.007,0.054-0.003,0.109,0.014,0.161l0.891,2.723c-1.411-0.049-2.4,0.179-2.4,0.179s-1.4,2.712-2.84,5.633l-1.072-0.737
				c-0.118-0.081-0.274-0.084-0.395-0.007l-3.396,2.148l-3.118-0.237c-0.198-0.015-0.37,0.133-0.385,0.331
				c-0.01,0.132,0.053,0.253,0.155,0.323c0.05,0.035,0.11,0.057,0.176,0.062l3.237,0.246c0.077,0.006,0.154-0.013,0.219-0.054
				l3.297-2.086l0.964,0.662c-1.089,2.224-2.144,4.462-2.575,5.628l-3.202-0.188c-0.158-0.009-0.304,0.087-0.359,0.236l-1.792,4.927
				l-2.297,0.668c-0.19,0.055-0.3,0.255-0.244,0.445c0.024,0.083,0.075,0.15,0.141,0.196c0.086,0.059,0.196,0.08,0.304,0.049
				l2.471-0.719c0.11-0.032,0.198-0.115,0.237-0.222l1.763-4.847l2.766,0.162c-0.312,1.379-0.364,3.695-0.333,5.739
				c0.03,2.011,2.075,3.362,3.938,2.606l5.206-2.113l1.026,2.262l-3.891,3.384c-0.086,0.075-0.132,0.187-0.122,0.301l0.215,2.565
				c0.009,0.112,0.069,0.207,0.155,0.266c0.066,0.045,0.147,0.069,0.233,0.062c0.197-0.017,0.344-0.19,0.328-0.388l-0.2-2.383
				l3.956-3.441c0.12-0.104,0.157-0.275,0.091-0.419l-1.124-2.479l0.409-0.166l3.922-4.56l1.358,0.933l-0.764,3.826
				c-0.015,0.076-0.005,0.154,0.028,0.224l1.391,2.933c0.028,0.059,0.07,0.107,0.121,0.142c0.102,0.07,0.238,0.085,0.357,0.029
				C250.318,254.315,250.395,254.101,250.31,253.922z"/>
			<g>
				<polygon style="fill:#7A7A7A;" points="234.923,244.498 238.533,245 239.233,247.019 241.271,246.771 243.18,250.39 
					251.053,240.528 244.155,239.854 240.352,233.396 				"/>
				<path style="fill:#263238;" d="M242.976,250.686c-0.047-0.032-0.087-0.076-0.114-0.128l-1.794-3.399l-1.792,0.218
					c-0.168,0.021-0.327-0.079-0.383-0.239l-0.628-1.811l-3.392-0.472c-0.114-0.016-0.214-0.085-0.268-0.187
					c-0.054-0.102-0.056-0.223-0.006-0.327l5.429-11.102c0.058-0.119,0.176-0.196,0.309-0.201c0.132-0.005,0.256,0.063,0.323,0.177
					l3.711,6.3l6.716,0.656c0.131,0.013,0.245,0.096,0.296,0.218c0.051,0.121,0.032,0.261-0.05,0.364l-7.873,9.862
					c-0.076,0.095-0.194,0.145-0.314,0.134C243.084,250.741,243.026,250.72,242.976,250.686z M241.474,246.475
					c0.047,0.032,0.087,0.076,0.114,0.128l1.653,3.133l7.118-8.916l-6.239-0.609c-0.114-0.011-0.216-0.077-0.275-0.175l-3.464-5.883
					l-4.918,10.057l3.119,0.434c0.134,0.018,0.246,0.111,0.29,0.238l0.605,1.745l1.75-0.213
					C241.316,246.404,241.404,246.427,241.474,246.475z"/>
			</g>
			<g>
				<polygon style="fill:#7A7A7A;" points="241.042,234.31 244.155,239.854 249.677,240.132 247.236,235.049 				"/>
				<path style="fill:#263238;" d="M243.952,240.15c-0.045-0.031-0.082-0.072-0.11-0.12l-3.113-5.544
					c-0.066-0.118-0.061-0.263,0.015-0.375c0.075-0.112,0.207-0.173,0.341-0.157l6.194,0.739c0.122,0.015,0.228,0.091,0.281,0.201
					l2.441,5.082c0.055,0.114,0.045,0.249-0.025,0.354c-0.07,0.105-0.191,0.166-0.317,0.16l-5.522-0.278
					C244.069,240.209,244.005,240.187,243.952,240.15z M241.701,234.751l2.67,4.755l4.721,0.237l-2.094-4.36L241.701,234.751z"/>
			</g>
		</g>
		<g>
			<path style="fill:#263238;" d="M315.849,253.52l-1.34-2.825l0.787-3.941c0.028-0.141-0.03-0.285-0.149-0.366l-1.489-1.023
				l4.338-5.043c0,0-0.474-1.364-1.553-3.018l2.097-0.107c0.055-0.003,0.108-0.018,0.156-0.044l2.553-1.412l3.09,0.43
				c0.196,0.027,0.378-0.11,0.405-0.306c0.027-0.196-0.11-0.378-0.306-0.405l-3.209-0.446c-0.077-0.011-0.155,0.004-0.223,0.042
				l-2.585,1.43l-2.456,0.125c-0.115-0.158-0.236-0.318-0.362-0.478l1.118-1.628l-1.194-0.82l0.802-1.167
				c1.269-0.576,7.079-3.109,10.217-2.743c0.197,0.023,0.375-0.118,0.398-0.315c0.023-0.197-0.118-0.375-0.315-0.398
				c-3.266-0.382-8.942,2.053-10.476,2.746l-2.184-1.5c0.164-1.699,0.574-7.037-0.376-10.049c-0.06-0.189-0.261-0.294-0.451-0.234
				c-0.189,0.06-0.294,0.261-0.234,0.451c0.947,3,0.455,8.676,0.323,9.996l-0.866,1.261l-1.12-0.769l-0.914,1.331
				c-0.636-0.187-1.256-0.299-1.831-0.359l-0.955-2.92l0.407-2.926c0.011-0.077-0.004-0.155-0.042-0.223l-1.568-2.835
				c-0.096-0.173-0.314-0.236-0.488-0.14c-0.173,0.096-0.236,0.314-0.14,0.488l1.51,2.73l-0.402,2.89
				c-0.008,0.054-0.003,0.109,0.014,0.161l0.891,2.723c-1.411-0.049-2.4,0.179-2.4,0.179s-1.4,2.712-2.84,5.633l-1.072-0.737
				c-0.118-0.081-0.274-0.084-0.395-0.007l-3.396,2.148l-3.118-0.237c-0.198-0.015-0.37,0.133-0.385,0.331
				c-0.01,0.132,0.053,0.253,0.155,0.323c0.05,0.035,0.11,0.057,0.176,0.062l3.237,0.246c0.077,0.006,0.154-0.013,0.219-0.055
				l3.297-2.085l0.964,0.662c-1.089,2.224-2.144,4.462-2.575,5.628l-3.202-0.188c-0.159-0.009-0.304,0.086-0.359,0.236l-1.792,4.927
				l-2.297,0.668c-0.19,0.056-0.3,0.255-0.244,0.445c0.024,0.083,0.075,0.15,0.141,0.195c0.086,0.059,0.196,0.08,0.304,0.049
				l2.471-0.719c0.11-0.032,0.198-0.115,0.237-0.222l1.763-4.847l2.766,0.162c-0.312,1.379-0.364,3.695-0.333,5.739
				c0.03,2.011,2.075,3.362,3.938,2.606l5.206-2.113l1.026,2.262l-3.891,3.384c-0.086,0.075-0.132,0.187-0.122,0.301l0.216,2.565
				c0.009,0.112,0.069,0.207,0.155,0.266c0.066,0.045,0.147,0.069,0.233,0.062c0.198-0.017,0.344-0.19,0.328-0.388l-0.2-2.383
				l3.956-3.44c0.12-0.104,0.157-0.275,0.091-0.419l-1.124-2.479l0.409-0.166l3.922-4.56l1.358,0.933l-0.764,3.826
				c-0.015,0.076-0.005,0.154,0.028,0.224l1.391,2.933c0.028,0.059,0.07,0.107,0.121,0.142c0.102,0.07,0.238,0.085,0.357,0.029
				C315.858,253.913,315.934,253.699,315.849,253.52z"/>
			<g>
				<polygon style="fill:#7A7A7A;" points="300.462,244.096 304.072,244.598 304.772,246.617 306.81,246.369 308.719,249.988 
					316.592,240.126 309.694,239.452 305.891,232.994 				"/>
				<path style="fill:#263238;" d="M308.516,250.283c-0.047-0.032-0.087-0.076-0.114-0.128l-1.793-3.399l-1.792,0.218
					c-0.168,0.02-0.327-0.079-0.383-0.239l-0.628-1.811l-3.392-0.472c-0.114-0.016-0.214-0.085-0.268-0.187
					c-0.054-0.102-0.056-0.223-0.006-0.327l5.429-11.102c0.058-0.119,0.176-0.196,0.309-0.201c0.132-0.005,0.256,0.063,0.323,0.177
					l3.711,6.3l6.716,0.656c0.131,0.013,0.245,0.096,0.296,0.218c0.051,0.121,0.032,0.261-0.05,0.364L309,250.212
					c-0.076,0.095-0.194,0.145-0.314,0.133C308.624,250.339,308.565,250.318,308.516,250.283z M307.014,246.073
					c0.047,0.032,0.086,0.076,0.114,0.129l1.653,3.133l7.118-8.916l-6.239-0.609c-0.114-0.011-0.216-0.077-0.274-0.175l-3.465-5.882
					l-4.918,10.057l3.119,0.434c0.134,0.019,0.246,0.111,0.29,0.238l0.605,1.745l1.75-0.213
					C306.856,246.002,306.943,246.025,307.014,246.073z"/>
			</g>
			<g>
				<polygon style="fill:#7A7A7A;" points="306.582,233.908 309.694,239.452 315.216,239.73 312.775,234.647 				"/>
				<path style="fill:#263238;" d="M309.491,239.748c-0.045-0.031-0.082-0.072-0.11-0.12l-3.113-5.544
					c-0.066-0.118-0.06-0.263,0.015-0.375c0.075-0.112,0.207-0.173,0.341-0.157l6.194,0.739c0.122,0.015,0.228,0.091,0.281,0.201
					l2.441,5.082c0.055,0.114,0.046,0.249-0.025,0.354c-0.07,0.105-0.191,0.166-0.317,0.16l-5.522-0.278
					C309.609,239.807,309.545,239.785,309.491,239.748z M307.241,234.348l2.67,4.755l4.721,0.238l-2.094-4.36L307.241,234.348z"/>
			</g>
		</g>
		<g>
			<path style="fill:#263238;" d="M143.014,325.276l-3.118-0.241l-3.029-2.641c-0.108-0.094-0.262-0.115-0.392-0.053l-1.628,0.784
				l-2.221-6.271c0,0-1.419-0.266-3.391-0.152l0.949-1.873c0.025-0.049,0.038-0.103,0.039-0.157l0.043-2.917l1.909-2.468
				c0.121-0.157,0.092-0.382-0.064-0.504c-0.157-0.121-0.383-0.092-0.504,0.064l-1.982,2.563c-0.048,0.061-0.074,0.137-0.075,0.214
				l-0.044,2.954l-1.112,2.194c-0.195,0.021-0.393,0.047-0.595,0.077l-0.857-1.78l-1.305,0.629l-0.615-1.276
				c0.131-1.387,0.82-7.688,2.697-10.229c0.118-0.159,0.084-0.384-0.075-0.502c-0.16-0.118-0.384-0.084-0.502,0.075
				c-1.954,2.645-2.662,8.78-2.823,10.456l-2.387,1.15c-1.393-0.986-5.821-3.995-8.908-4.667c-0.194-0.042-0.385,0.081-0.427,0.274
				c-0.042,0.194,0.081,0.385,0.274,0.427c3.074,0.669,7.755,3.917,8.835,4.688l0.664,1.378l-1.224,0.589l0.701,1.455
				c-0.479,0.459-0.884,0.941-1.221,1.411l-3.009-0.622l-2.337-1.807c-0.061-0.047-0.137-0.074-0.214-0.075l-3.239-0.048
				c-0.198-0.003-0.361,0.155-0.364,0.354c-0.003,0.198,0.156,0.361,0.354,0.364l3.12,0.046l2.308,1.785
				c0.043,0.033,0.093,0.056,0.147,0.068l2.806,0.58c-0.743,1.2-1.037,2.171-1.037,2.171s1.658,2.562,3.477,5.264l-1.172,0.565
				c-0.13,0.062-0.209,0.196-0.203,0.339l0.177,4.015l-1.755,2.588c-0.111,0.164-0.068,0.387,0.096,0.499
				c0.11,0.075,0.246,0.08,0.358,0.026c0.055-0.026,0.104-0.068,0.141-0.122l1.822-2.687c0.043-0.064,0.065-0.14,0.062-0.217
				l-0.171-3.897l1.053-0.507c1.389,2.051,2.806,4.078,3.604,5.031l-1.755,2.685c-0.087,0.133-0.076,0.307,0.026,0.428l3.385,4.003
				l-0.561,2.325c-0.047,0.193,0.072,0.387,0.265,0.433c0.084,0.02,0.168,0.009,0.24-0.025c0.094-0.045,0.167-0.13,0.193-0.239
				l0.604-2.502c0.027-0.111-0.001-0.229-0.075-0.316l-3.33-3.938l1.515-2.319c1.042,0.956,3.025,2.152,4.815,3.141
				c1.76,0.973,3.948-0.13,4.218-2.123l0.754-5.567l2.472,0.234l1.003,5.059c0.022,0.112,0.097,0.207,0.201,0.256l2.333,1.088
				c0.102,0.047,0.214,0.043,0.308-0.002c0.072-0.035,0.133-0.094,0.17-0.172c0.084-0.18,0.006-0.393-0.174-0.477l-2.168-1.011
				l-1.02-5.142c-0.031-0.156-0.16-0.273-0.319-0.288l-2.71-0.256l0.059-0.437l-2.008-5.67l1.485-0.715l2.94,2.564
				c0.058,0.051,0.131,0.081,0.208,0.087l3.236,0.25c0.065,0.005,0.128-0.008,0.183-0.034c0.111-0.054,0.192-0.164,0.202-0.296
				C143.36,325.464,143.212,325.292,143.014,325.276z"/>
			<g>
				<polygon style="fill:#7A7A7A;" points="127.19,333.946 129.419,331.063 131.52,331.459 132.317,329.567 136.406,329.708 
					131.76,317.976 127.748,323.627 120.254,323.718 				"/>
				<path style="fill:#363636;" d="M136.561,330.032c-0.052,0.025-0.109,0.037-0.168,0.035l-3.841-0.133l-0.701,1.664
					c-0.066,0.156-0.231,0.245-0.397,0.213l-1.884-0.355l-2.095,2.709c-0.071,0.091-0.18,0.143-0.295,0.139
					c-0.115-0.004-0.221-0.062-0.286-0.157l-6.936-10.228c-0.074-0.109-0.082-0.251-0.021-0.368
					c0.061-0.117,0.182-0.191,0.314-0.193l7.311-0.089l3.906-5.502c0.076-0.107,0.205-0.164,0.336-0.148
					c0.131,0.016,0.242,0.102,0.291,0.224l4.646,11.733c0.045,0.113,0.029,0.24-0.04,0.339
					C136.663,329.966,136.616,330.006,136.561,330.032z M132.161,329.243c0.051-0.025,0.109-0.037,0.168-0.035l3.54,0.122
					l-4.2-10.608l-3.629,5.112c-0.067,0.094-0.174,0.15-0.288,0.151l-6.826,0.083l6.283,9.265l1.926-2.491
					c0.083-0.107,0.218-0.158,0.351-0.133l1.815,0.342l0.685-1.625C132.021,329.345,132.084,329.28,132.161,329.243z"/>
			</g>
			<g>
				<polygon style="fill:#7A7A7A;" points="121.39,323.573 127.748,323.627 130.733,318.973 125.109,318.565 				"/>
				<path style="fill:#363636;" d="M127.903,323.95c-0.049,0.023-0.103,0.036-0.159,0.036l-6.358-0.054
					c-0.135-0.001-0.258-0.078-0.318-0.199c-0.06-0.121-0.047-0.266,0.033-0.374l3.719-5.007c0.073-0.099,0.192-0.153,0.314-0.144
					l5.623,0.407c0.126,0.009,0.239,0.084,0.295,0.197c0.057,0.113,0.049,0.248-0.019,0.354l-2.985,4.654
					C128.014,323.877,127.962,323.922,127.903,323.95z M122.099,323.22l5.453,0.046l2.552-3.978l-4.824-0.35L122.099,323.22z"/>
			</g>
		</g>
	</g>
</g>
</svg>
